<svg width="400" height="400" viewBox="0 0 400 400" fill="none" xmlns="http://www.w3.org/2000/svg">
<rect width="400" height="400" fill="#6F779D"/>
<path d="M243.1 203.38C243.1 204.167 242.967 204.947 242.7 205.72C242.433 206.493 242.033 207.12 241.5 207.6C241.34 207.747 241.16 207.807 240.96 207.78C240.76 207.753 240.587 207.653 240.44 207.48C240.307 207.293 240.253 207.1 240.28 206.9C240.307 206.7 240.393 206.533 240.54 206.4C240.913 206.08 241.2 205.66 241.4 205.14C241.6 204.607 241.7 204.02 241.7 203.38C241.7 202.393 241.533 201.68 241.2 201.24C240.853 200.8 240.44 200.573 239.96 200.56C239.48 200.56 239.087 200.787 238.78 201.24C238.46 201.693 238.213 202.44 238.04 203.48C237.827 204.827 237.453 205.813 236.92 206.44C236.387 207.067 235.753 207.38 235.02 207.38C234.34 207.38 233.773 207.2 233.32 206.84C232.867 206.48 232.527 206 232.3 205.4C232.073 204.8 231.96 204.14 231.96 203.42C231.96 202.527 232.113 201.76 232.42 201.12C232.727 200.467 233.14 199.94 233.66 199.54C233.833 199.407 234.013 199.353 234.2 199.38C234.387 199.407 234.54 199.513 234.66 199.7C234.753 199.86 234.787 200.047 234.76 200.26C234.72 200.46 234.62 200.633 234.46 200.78C234.073 201.113 233.793 201.5 233.62 201.94C233.433 202.38 233.34 202.887 233.34 203.46C233.34 204.193 233.493 204.78 233.8 205.22C234.093 205.66 234.467 205.88 234.92 205.88C235.227 205.88 235.493 205.8 235.72 205.64C235.947 205.467 236.147 205.18 236.32 204.78C236.493 204.367 236.64 203.793 236.76 203.06C236.92 202.06 237.16 201.273 237.48 200.7C237.787 200.113 238.153 199.7 238.58 199.46C238.993 199.207 239.447 199.08 239.94 199.08C240.567 199.08 241.12 199.267 241.6 199.64C242.067 200 242.433 200.507 242.7 201.16C242.967 201.8 243.1 202.54 243.1 203.38ZM243.1 191.439C243.1 192.505 242.86 193.459 242.38 194.299C241.9 195.139 241.24 195.799 240.4 196.279C239.56 196.759 238.607 196.999 237.54 196.999C236.46 196.999 235.5 196.759 234.66 196.279C233.82 195.799 233.16 195.139 232.68 194.299C232.2 193.459 231.96 192.505 231.96 191.439C231.96 190.372 232.2 189.425 232.68 188.599C233.16 187.759 233.82 187.099 234.66 186.619C235.5 186.139 236.46 185.892 237.54 185.879C238.607 185.879 239.56 186.125 240.4 186.619C241.24 187.099 241.9 187.759 242.38 188.599C242.86 189.425 243.1 190.372 243.1 191.439ZM241.7 191.439C241.7 190.665 241.52 189.972 241.16 189.359C240.8 188.745 240.307 188.265 239.68 187.919C239.053 187.572 238.34 187.399 237.54 187.399C236.74 187.399 236.027 187.572 235.4 187.919C234.76 188.265 234.26 188.745 233.9 189.359C233.54 189.972 233.36 190.665 233.36 191.439C233.36 192.212 233.54 192.905 233.9 193.519C234.26 194.132 234.76 194.619 235.4 194.979C236.027 195.325 236.74 195.499 237.54 195.499C238.34 195.499 239.053 195.325 239.68 194.979C240.307 194.619 240.8 194.132 241.16 193.519C241.52 192.905 241.7 192.212 241.7 191.439ZM243 180.524C243 181.057 242.853 181.537 242.56 181.964C242.267 182.377 241.86 182.704 241.34 182.944C240.82 183.17 240.22 183.284 239.54 183.284H228.14C227.913 183.284 227.733 183.217 227.6 183.084C227.453 182.937 227.38 182.75 227.38 182.524C227.38 182.297 227.453 182.117 227.6 181.984C227.733 181.837 227.913 181.764 228.14 181.764H239.54C240.113 181.764 240.58 181.65 240.94 181.424C241.3 181.184 241.48 180.884 241.48 180.524V180.024C241.48 179.824 241.553 179.664 241.7 179.544C241.833 179.424 242.013 179.364 242.24 179.364C242.467 179.364 242.653 179.45 242.8 179.624C242.933 179.784 243 179.997 243 180.264V180.524ZM243.12 172.479C243.12 173.426 242.927 174.272 242.54 175.019C242.14 175.766 241.56 176.359 240.8 176.799C240.04 177.226 239.113 177.439 238.02 177.439H232.82C232.607 177.439 232.427 177.366 232.28 177.219C232.133 177.072 232.06 176.892 232.06 176.679C232.06 176.452 232.133 176.266 232.28 176.119C232.427 175.972 232.607 175.899 232.82 175.899H238.02C238.847 175.899 239.527 175.746 240.06 175.439C240.593 175.119 240.993 174.692 241.26 174.159C241.527 173.612 241.66 172.999 241.66 172.319C241.66 171.666 241.533 171.079 241.28 170.559C241.027 170.026 240.68 169.606 240.24 169.299C239.8 168.992 239.3 168.839 238.74 168.839V167.739C239.58 167.779 240.333 168.012 241 168.439C241.653 168.852 242.173 169.412 242.56 170.119C242.933 170.826 243.12 171.612 243.12 172.479ZM243 168.079C243 168.306 242.933 168.492 242.8 168.639C242.653 168.772 242.46 168.839 242.22 168.839H232.82C232.593 168.839 232.413 168.772 232.28 168.639C232.133 168.492 232.06 168.306 232.06 168.079C232.06 167.852 232.133 167.666 232.28 167.519C232.413 167.372 232.593 167.299 232.82 167.299H242.22C242.46 167.299 242.653 167.372 242.8 167.519C242.933 167.666 243 167.852 243 168.079ZM243 159.424C243 160.131 242.833 160.764 242.5 161.324C242.167 161.871 241.713 162.304 241.14 162.624C240.553 162.944 239.887 163.104 239.14 163.104H229.36C229.133 163.104 228.947 163.037 228.8 162.904C228.653 162.757 228.58 162.571 228.58 162.344C228.58 162.117 228.653 161.931 228.8 161.784C228.947 161.637 229.133 161.564 229.36 161.564H239.14C239.82 161.564 240.38 161.364 240.82 160.964C241.247 160.564 241.46 160.051 241.46 159.424V158.884C241.46 158.671 241.533 158.497 241.68 158.364C241.827 158.231 242.013 158.164 242.24 158.164C242.467 158.164 242.653 158.244 242.8 158.404C242.933 158.564 243 158.764 243 159.004V159.424ZM233.8 164.404C233.8 164.604 233.74 164.771 233.62 164.904C233.487 165.037 233.327 165.104 233.14 165.104C232.94 165.104 232.78 165.037 232.66 164.904C232.527 164.771 232.46 164.604 232.46 164.404V159.304C232.46 159.104 232.527 158.937 232.66 158.804C232.78 158.671 232.94 158.604 233.14 158.604C233.327 158.604 233.487 158.671 233.62 158.804C233.74 158.937 233.8 159.104 233.8 159.304V164.404ZM243 154.557C243 154.797 242.933 154.99 242.8 155.137C242.653 155.27 242.46 155.337 242.22 155.337H232.84C232.6 155.337 232.413 155.27 232.28 155.137C232.133 154.99 232.06 154.797 232.06 154.557C232.06 154.33 232.133 154.15 232.28 154.017C232.413 153.87 232.6 153.797 232.84 153.797H242.22C242.46 153.797 242.653 153.87 242.8 154.017C242.933 154.15 243 154.33 243 154.557ZM229.98 154.577C229.98 154.87 229.873 155.124 229.66 155.337C229.447 155.55 229.187 155.657 228.88 155.657C228.547 155.657 228.287 155.55 228.1 155.337C227.9 155.11 227.8 154.85 227.8 154.557C227.8 154.277 227.9 154.03 228.1 153.817C228.287 153.59 228.547 153.477 228.88 153.477C229.187 153.477 229.447 153.584 229.66 153.797C229.873 154.01 229.98 154.27 229.98 154.577ZM243.1 144.896C243.1 145.962 242.86 146.916 242.38 147.756C241.9 148.596 241.24 149.256 240.4 149.736C239.56 150.216 238.607 150.456 237.54 150.456C236.46 150.456 235.5 150.216 234.66 149.736C233.82 149.256 233.16 148.596 232.68 147.756C232.2 146.916 231.96 145.962 231.96 144.896C231.96 143.829 232.2 142.882 232.68 142.056C233.16 141.216 233.82 140.556 234.66 140.076C235.5 139.596 236.46 139.349 237.54 139.336C238.607 139.336 239.56 139.582 240.4 140.076C241.24 140.556 241.9 141.216 242.38 142.056C242.86 142.882 243.1 143.829 243.1 144.896ZM241.7 144.896C241.7 144.122 241.52 143.429 241.16 142.816C240.8 142.202 240.307 141.722 239.68 141.376C239.053 141.029 238.34 140.856 237.54 140.856C236.74 140.856 236.027 141.029 235.4 141.376C234.76 141.722 234.26 142.202 233.9 142.816C233.54 143.429 233.36 144.122 233.36 144.896C233.36 145.669 233.54 146.362 233.9 146.976C234.26 147.589 234.76 148.076 235.4 148.436C236.027 148.782 236.74 148.956 237.54 148.956C238.34 148.956 239.053 148.782 239.68 148.436C240.307 148.076 240.8 147.589 241.16 146.976C241.52 146.362 241.7 145.669 241.7 144.896ZM243 126.961C243 127.187 242.927 127.374 242.78 127.521C242.633 127.667 242.453 127.741 242.24 127.741H237.04C236.213 127.741 235.533 127.901 235 128.221C234.467 128.527 234.067 128.954 233.8 129.501C233.533 130.034 233.4 130.641 233.4 131.321C233.4 131.974 233.527 132.567 233.78 133.101C234.033 133.621 234.38 134.034 234.82 134.341C235.26 134.647 235.76 134.801 236.32 134.801V135.901C235.48 135.874 234.733 135.647 234.08 135.221C233.413 134.794 232.893 134.227 232.52 133.521C232.133 132.814 231.94 132.027 231.94 131.161C231.94 130.214 232.14 129.367 232.54 128.621C232.927 127.874 233.5 127.287 234.26 126.861C235.02 126.421 235.947 126.201 237.04 126.201H242.24C242.453 126.201 242.633 126.274 242.78 126.421C242.927 126.567 243 126.747 243 126.961ZM243 135.561C243 135.801 242.933 135.994 242.8 136.141C242.653 136.274 242.467 136.341 242.24 136.341H232.84C232.6 136.341 232.413 136.274 232.28 136.141C232.133 135.994 232.06 135.801 232.06 135.561C232.06 135.334 232.133 135.154 232.28 135.021C232.413 134.874 232.6 134.801 232.84 134.801H242.24C242.467 134.801 242.653 134.874 242.8 135.021C242.933 135.154 243 135.334 243 135.561ZM243.1 118.985C243.1 119.772 242.967 120.552 242.7 121.325C242.433 122.099 242.033 122.725 241.5 123.205C241.34 123.352 241.16 123.412 240.96 123.385C240.76 123.359 240.587 123.259 240.44 123.085C240.307 122.899 240.253 122.705 240.28 122.505C240.307 122.305 240.393 122.139 240.54 122.005C240.913 121.685 241.2 121.265 241.4 120.745C241.6 120.212 241.7 119.625 241.7 118.985C241.7 117.999 241.533 117.285 241.2 116.845C240.853 116.405 240.44 116.179 239.96 116.165C239.48 116.165 239.087 116.392 238.78 116.845C238.46 117.299 238.213 118.045 238.04 119.085C237.827 120.432 237.453 121.419 236.92 122.045C236.387 122.672 235.753 122.985 235.02 122.985C234.34 122.985 233.773 122.805 233.32 122.445C232.867 122.085 232.527 121.605 232.3 121.005C232.073 120.405 231.96 119.745 231.96 119.025C231.96 118.132 232.113 117.365 232.42 116.725C232.727 116.072 233.14 115.545 233.66 115.145C233.833 115.012 234.013 114.959 234.2 114.985C234.387 115.012 234.54 115.119 234.66 115.305C234.753 115.465 234.787 115.652 234.76 115.865C234.72 116.065 234.62 116.239 234.46 116.385C234.073 116.719 233.793 117.105 233.62 117.545C233.433 117.985 233.34 118.492 233.34 119.065C233.34 119.799 233.493 120.385 233.8 120.825C234.093 121.265 234.467 121.485 234.92 121.485C235.227 121.485 235.493 121.405 235.72 121.245C235.947 121.072 236.147 120.785 236.32 120.385C236.493 119.972 236.64 119.399 236.76 118.665C236.92 117.665 237.16 116.879 237.48 116.305C237.787 115.719 238.153 115.305 238.58 115.065C238.993 114.812 239.447 114.685 239.94 114.685C240.567 114.685 241.12 114.872 241.6 115.245C242.067 115.605 242.433 116.112 242.7 116.765C242.967 117.405 243.1 118.145 243.1 118.985Z" fill="white"/>
<path d="M69.032 203.24C66.504 203.24 64.248 202.664 62.264 201.512C60.312 200.328 58.76 198.728 57.608 196.712C56.488 194.696 55.928 192.424 55.928 189.896C55.928 187.336 56.472 185.048 57.56 183.032C58.648 181.016 60.136 179.432 62.024 178.28C63.912 177.096 66.088 176.504 68.552 176.504C70.504 176.504 72.296 176.888 73.928 177.656C75.592 178.424 77.048 179.576 78.296 181.112C78.648 181.496 78.776 181.912 78.68 182.36C78.584 182.776 78.312 183.144 77.864 183.464C77.512 183.72 77.112 183.816 76.664 183.752C76.248 183.656 75.88 183.416 75.56 183.032C73.704 180.92 71.368 179.864 68.552 179.864C66.76 179.864 65.176 180.296 63.8 181.16C62.456 182.024 61.4 183.208 60.632 184.712C59.896 186.216 59.528 187.944 59.528 189.896C59.528 191.816 59.928 193.528 60.728 195.032C61.528 196.536 62.648 197.72 64.088 198.584C65.528 199.448 67.176 199.88 69.032 199.88C70.28 199.88 71.416 199.72 72.44 199.4C73.496 199.048 74.424 198.52 75.224 197.816C75.608 197.496 76.008 197.32 76.424 197.288C76.84 197.256 77.224 197.384 77.576 197.672C77.96 198.024 78.168 198.424 78.2 198.872C78.264 199.32 78.12 199.704 77.768 200.024C75.432 202.168 72.52 203.24 69.032 203.24ZM154.744 203.24C152.216 203.24 149.944 202.664 147.928 201.512C145.912 200.328 144.312 198.728 143.128 196.712C141.976 194.696 141.4 192.408 141.4 189.848C141.4 187.32 141.96 185.048 143.08 183.032C144.232 181.016 145.784 179.432 147.736 178.28C149.688 177.096 151.896 176.504 154.36 176.504C156.504 176.504 158.44 176.968 160.168 177.896C161.896 178.792 163.288 179.992 164.344 181.496V167.384C164.344 166.808 164.52 166.36 164.872 166.04C165.224 165.688 165.672 165.512 166.216 165.512C166.76 165.512 167.208 165.688 167.56 166.04C167.912 166.36 168.088 166.808 168.088 167.384V190.04C168.024 192.536 167.4 194.792 166.216 196.808C165.064 198.792 163.48 200.36 161.464 201.512C159.48 202.664 157.24 203.24 154.744 203.24ZM154.744 199.88C156.6 199.88 158.248 199.448 159.688 198.584C161.16 197.688 162.312 196.488 163.144 194.984C164.008 193.48 164.44 191.768 164.44 189.848C164.44 187.96 164.008 186.264 163.144 184.76C162.312 183.224 161.16 182.024 159.688 181.16C158.248 180.296 156.6 179.864 154.744 179.864C152.92 179.864 151.272 180.296 149.8 181.16C148.328 182.024 147.16 183.224 146.296 184.76C145.432 186.264 145 187.96 145 189.848C145 191.768 145.432 193.48 146.296 194.984C147.16 196.488 148.328 197.688 149.8 198.584C151.272 199.448 152.92 199.88 154.744 199.88ZM198.233 203.24C195.641 203.24 193.337 202.68 191.321 201.56C189.337 200.408 187.769 198.824 186.617 196.808C185.497 194.792 184.937 192.488 184.937 189.896C184.937 187.272 185.465 184.968 186.521 182.984C187.609 180.968 189.097 179.384 190.985 178.232C192.873 177.08 195.049 176.504 197.513 176.504C199.945 176.504 202.057 177.064 203.849 178.184C205.673 179.272 207.081 180.792 208.073 182.744C209.065 184.696 209.561 186.92 209.561 189.416C209.561 189.928 209.401 190.344 209.081 190.664C208.761 190.952 208.345 191.096 207.833 191.096H187.433V188.024H208.217L206.153 189.512C206.185 187.656 205.849 185.992 205.145 184.52C204.441 183.048 203.433 181.896 202.121 181.064C200.841 180.232 199.305 179.816 197.513 179.816C195.689 179.816 194.089 180.248 192.713 181.112C191.337 181.976 190.265 183.176 189.497 184.712C188.761 186.216 188.393 187.944 188.393 189.896C188.393 191.848 188.809 193.576 189.641 195.08C190.505 196.584 191.673 197.768 193.145 198.632C194.617 199.496 196.313 199.928 198.233 199.928C199.385 199.928 200.537 199.736 201.689 199.352C202.873 198.936 203.817 198.424 204.521 197.816C204.873 197.528 205.273 197.384 205.721 197.384C206.169 197.352 206.553 197.464 206.873 197.72C207.289 198.104 207.497 198.52 207.497 198.968C207.529 199.416 207.353 199.8 206.969 200.12C205.913 201.016 204.569 201.768 202.937 202.376C201.305 202.952 199.737 203.24 198.233 203.24Z" fill="white"/>
<path d="M92.792 151C92.248 151 91.8 150.84 91.448 150.52C91.096 150.168 90.92 149.72 90.92 149.176V135.352C90.92 133.08 90.328 131.288 89.144 129.976C87.96 128.632 86.44 127.96 84.584 127.96C82.6 127.96 80.968 128.632 79.688 129.976C78.44 131.288 77.832 133.048 77.864 135.256H74.552C74.584 133.112 75.048 131.224 75.944 129.592C76.84 127.96 78.072 126.696 79.64 125.8C81.208 124.904 82.984 124.456 84.968 124.456C86.856 124.456 88.52 124.904 89.96 125.8C91.432 126.696 92.568 127.96 93.368 129.592C94.2 131.224 94.616 133.144 94.616 135.352V149.176C94.616 149.72 94.44 150.168 94.088 150.52C93.768 150.84 93.336 151 92.792 151ZM59.192 151C58.616 151 58.152 150.84 57.8 150.52C57.48 150.168 57.32 149.72 57.32 149.176V126.616C57.32 126.072 57.48 125.624 57.8 125.272C58.152 124.92 58.616 124.744 59.192 124.744C59.736 124.744 60.168 124.92 60.488 125.272C60.84 125.624 61.016 126.072 61.016 126.616V149.176C61.016 149.72 60.84 150.168 60.488 150.52C60.168 150.84 59.736 151 59.192 151ZM76.04 151C75.496 151 75.048 150.84 74.696 150.52C74.344 150.168 74.168 149.72 74.168 149.176V135.352C74.168 133.08 73.576 131.288 72.392 129.976C71.208 128.632 69.688 127.96 67.832 127.96C65.848 127.96 64.216 128.616 62.936 129.928C61.656 131.208 61.016 132.888 61.016 134.968H58.376C58.44 132.92 58.888 131.112 59.72 129.544C60.584 127.944 61.752 126.696 63.224 125.8C64.696 124.904 66.36 124.456 68.216 124.456C70.104 124.456 71.768 124.904 73.208 125.8C74.68 126.696 75.816 127.96 76.616 129.592C77.448 131.224 77.864 133.144 77.864 135.352V149.176C77.864 149.72 77.688 150.168 77.336 150.52C77.016 150.84 76.584 151 76.04 151ZM123.957 151.24C121.493 151.24 119.285 150.664 117.333 149.512C115.381 148.328 113.829 146.728 112.677 144.712C111.557 142.696 110.997 140.424 110.997 137.896C110.997 135.336 111.573 133.048 112.725 131.032C113.909 129.016 115.509 127.432 117.525 126.28C119.541 125.096 121.813 124.504 124.341 124.504C126.869 124.504 129.125 125.096 131.109 126.28C133.125 127.432 134.709 129.016 135.861 131.032C137.045 133.048 137.653 135.336 137.685 137.896L136.197 139.048C136.197 141.352 135.653 143.432 134.565 145.288C133.509 147.112 132.053 148.568 130.197 149.656C128.373 150.712 126.293 151.24 123.957 151.24ZM124.341 147.88C126.197 147.88 127.845 147.448 129.285 146.584C130.757 145.72 131.909 144.536 132.741 143.032C133.605 141.496 134.037 139.784 134.037 137.896C134.037 135.976 133.605 134.264 132.741 132.76C131.909 131.256 130.757 130.072 129.285 129.208C127.845 128.312 126.197 127.864 124.341 127.864C122.517 127.864 120.869 128.312 119.397 129.208C117.925 130.072 116.757 131.256 115.893 132.76C115.029 134.264 114.597 135.976 114.597 137.896C114.597 139.784 115.029 141.496 115.893 143.032C116.757 144.536 117.925 145.72 119.397 146.584C120.869 147.448 122.517 147.88 124.341 147.88ZM135.813 151C135.269 151 134.821 150.84 134.469 150.52C134.117 150.168 133.941 149.72 133.941 149.176V140.968L134.853 137.176L137.685 137.896V149.176C137.685 149.72 137.509 150.168 137.157 150.52C136.805 150.84 136.357 151 135.813 151ZM164.745 151C163.049 151 161.529 150.6 160.185 149.8C158.873 149 157.833 147.912 157.065 146.536C156.297 145.128 155.913 143.528 155.913 141.736V118.264C155.913 117.72 156.073 117.272 156.393 116.92C156.745 116.568 157.193 116.392 157.737 116.392C158.281 116.392 158.729 116.568 159.081 116.92C159.433 117.272 159.609 117.72 159.609 118.264V141.736C159.609 143.368 160.089 144.712 161.049 145.768C162.009 146.792 163.241 147.304 164.745 147.304H166.041C166.553 147.304 166.969 147.48 167.289 147.832C167.609 148.184 167.769 148.632 167.769 149.176C167.769 149.72 167.577 150.168 167.193 150.52C166.809 150.84 166.329 151 165.753 151H164.745ZM152.793 128.92C152.313 128.92 151.913 128.776 151.593 128.488C151.273 128.168 151.113 127.784 151.113 127.336C151.113 126.856 151.273 126.472 151.593 126.184C151.913 125.864 152.313 125.704 152.793 125.704H165.033C165.513 125.704 165.913 125.864 166.233 126.184C166.553 126.472 166.713 126.856 166.713 127.336C166.713 127.784 166.553 128.168 166.233 128.488C165.913 128.776 165.513 128.92 165.033 128.92H152.793ZM185.258 140.296C184.682 140.296 184.218 140.12 183.866 139.768C183.546 139.416 183.386 138.968 183.386 138.424V115.384C183.386 114.808 183.546 114.36 183.866 114.04C184.218 113.688 184.682 113.512 185.258 113.512C185.802 113.512 186.234 113.688 186.554 114.04C186.906 114.36 187.082 114.808 187.082 115.384V138.424C187.082 138.968 186.906 139.416 186.554 139.768C186.234 140.12 185.802 140.296 185.258 140.296ZM205.898 151C205.354 151 204.906 150.824 204.554 150.472C204.202 150.12 204.026 149.688 204.026 149.176V136.696C204.026 134.712 203.642 133.08 202.874 131.8C202.138 130.52 201.114 129.56 199.802 128.92C198.522 128.28 197.066 127.96 195.434 127.96C193.866 127.96 192.442 128.264 191.162 128.872C189.914 129.48 188.922 130.312 188.186 131.368C187.45 132.424 187.082 133.624 187.082 134.968H184.442C184.506 132.952 185.05 131.16 186.074 129.592C187.098 127.992 188.458 126.744 190.154 125.848C191.85 124.92 193.738 124.456 195.818 124.456C198.09 124.456 200.122 124.936 201.914 125.896C203.706 126.824 205.114 128.2 206.138 130.024C207.194 131.848 207.722 134.072 207.722 136.696V149.176C207.722 149.688 207.546 150.12 207.194 150.472C206.842 150.824 206.41 151 205.898 151ZM185.258 151C184.682 151 184.218 150.84 183.866 150.52C183.546 150.168 183.386 149.72 183.386 149.176V126.616C183.386 126.04 183.546 125.592 183.866 125.272C184.218 124.92 184.682 124.744 185.258 124.744C185.802 124.744 186.234 124.92 186.554 125.272C186.906 125.592 187.082 126.04 187.082 126.616V149.176C187.082 149.72 186.906 150.168 186.554 150.52C186.234 150.84 185.802 151 185.258 151Z" fill="white"/>
<path d="M171.27 229C171.163 229 171.07 228.963 170.99 228.89C170.917 228.81 170.88 228.717 170.88 228.61V221.19H171.66V228.61C171.66 228.717 171.623 228.81 171.55 228.89C171.477 228.963 171.383 229 171.27 229ZM168.51 221.9C168.403 221.9 168.317 221.867 168.25 221.8C168.183 221.733 168.15 221.65 168.15 221.55C168.15 221.443 168.183 221.357 168.25 221.29C168.317 221.223 168.403 221.19 168.51 221.19H174.04C174.147 221.19 174.233 221.223 174.3 221.29C174.367 221.357 174.4 221.443 174.4 221.55C174.4 221.65 174.367 221.733 174.3 221.8C174.233 221.867 174.147 221.9 174.04 221.9H168.51ZM177.943 229C177.829 229 177.736 228.963 177.663 228.89C177.589 228.817 177.553 228.723 177.553 228.61V221.58C177.553 221.467 177.589 221.373 177.663 221.3C177.736 221.227 177.829 221.19 177.943 221.19H182.633C182.739 221.19 182.829 221.227 182.903 221.3C182.983 221.367 183.023 221.457 183.023 221.57C183.023 221.67 182.983 221.757 182.903 221.83C182.829 221.903 182.739 221.94 182.633 221.94H178.333V224.7H181.463C181.576 224.7 181.669 224.737 181.743 224.81C181.816 224.883 181.853 224.973 181.853 225.08C181.853 225.187 181.816 225.277 181.743 225.35C181.669 225.423 181.576 225.46 181.463 225.46H178.333V228.25H182.633C182.739 228.25 182.829 228.287 182.903 228.36C182.983 228.433 183.023 228.52 183.023 228.62C183.023 228.733 182.983 228.827 182.903 228.9C182.829 228.967 182.739 229 182.633 229H177.943ZM189.987 229.1C189.447 229.1 188.94 228.997 188.467 228.79C188 228.583 187.587 228.297 187.227 227.93C186.873 227.557 186.597 227.13 186.397 226.65C186.197 226.163 186.097 225.643 186.097 225.09C186.097 224.543 186.193 224.03 186.387 223.55C186.587 223.063 186.863 222.637 187.217 222.27C187.577 221.903 187.99 221.617 188.457 221.41C188.93 221.197 189.44 221.09 189.987 221.09C190.467 221.09 190.903 221.16 191.297 221.3C191.69 221.44 192.07 221.663 192.437 221.97C192.497 222.017 192.53 222.073 192.537 222.14C192.55 222.2 192.543 222.26 192.517 222.32C192.49 222.373 192.45 222.413 192.397 222.44C192.383 222.493 192.35 222.533 192.297 222.56C192.243 222.587 192.18 222.597 192.107 222.59C192.04 222.583 191.973 222.553 191.907 222.5C191.647 222.273 191.363 222.107 191.057 222C190.75 221.887 190.393 221.83 189.987 221.83C189.553 221.83 189.147 221.917 188.767 222.09C188.393 222.263 188.063 222.5 187.777 222.8C187.49 223.1 187.263 223.447 187.097 223.84C186.937 224.233 186.857 224.65 186.857 225.09C186.857 225.543 186.937 225.967 187.097 226.36C187.263 226.753 187.49 227.1 187.777 227.4C188.063 227.7 188.393 227.937 188.767 228.11C189.147 228.277 189.553 228.36 189.987 228.36C190.353 228.36 190.7 228.3 191.027 228.18C191.353 228.06 191.663 227.887 191.957 227.66C192.037 227.593 192.12 227.567 192.207 227.58C192.3 227.593 192.38 227.633 192.447 227.7C192.513 227.767 192.547 227.853 192.547 227.96C192.547 228.013 192.537 228.063 192.517 228.11C192.503 228.15 192.477 228.193 192.437 228.24C192.097 228.553 191.717 228.777 191.297 228.91C190.877 229.037 190.44 229.1 189.987 229.1ZM196.542 229C196.429 229 196.336 228.963 196.262 228.89C196.189 228.817 196.152 228.723 196.152 228.61V221.58C196.152 221.467 196.189 221.373 196.262 221.3C196.336 221.227 196.429 221.19 196.542 221.19C196.656 221.19 196.749 221.227 196.822 221.3C196.896 221.373 196.932 221.467 196.932 221.58V224.7H201.812V221.58C201.812 221.467 201.849 221.373 201.922 221.3C201.996 221.227 202.089 221.19 202.202 221.19C202.316 221.19 202.409 221.227 202.482 221.3C202.556 221.373 202.592 221.467 202.592 221.58V228.61C202.592 228.723 202.556 228.817 202.482 228.89C202.409 228.963 202.316 229 202.202 229C202.089 229 201.996 228.963 201.922 228.89C201.849 228.817 201.812 228.723 201.812 228.61V225.4H196.932V228.61C196.932 228.723 196.896 228.817 196.822 228.89C196.749 228.963 196.656 229 196.542 229ZM206.98 229C206.867 229 206.773 228.963 206.7 228.89C206.627 228.817 206.59 228.723 206.59 228.61V221.58C206.59 221.467 206.627 221.373 206.7 221.3C206.773 221.227 206.867 221.19 206.98 221.19C207.1 221.19 207.2 221.237 207.28 221.33L212.06 227.61V221.58C212.06 221.467 212.097 221.373 212.17 221.3C212.243 221.227 212.337 221.19 212.45 221.19C212.557 221.19 212.647 221.227 212.72 221.3C212.8 221.373 212.84 221.467 212.84 221.58V228.61C212.84 228.723 212.8 228.817 212.72 228.89C212.647 228.963 212.557 229 212.45 229C212.397 229 212.343 228.99 212.29 228.97C212.237 228.95 212.193 228.917 212.16 228.87L207.37 222.59V228.61C207.37 228.723 207.33 228.817 207.25 228.89C207.177 228.963 207.087 229 206.98 229ZM220.452 229.1C219.872 229.1 219.338 229 218.852 228.8C218.365 228.6 217.942 228.32 217.582 227.96C217.228 227.6 216.952 227.177 216.752 226.69C216.558 226.203 216.462 225.67 216.462 225.09C216.462 224.517 216.558 223.987 216.752 223.5C216.952 223.013 217.228 222.59 217.582 222.23C217.942 221.87 218.365 221.59 218.852 221.39C219.338 221.19 219.872 221.09 220.452 221.09C221.025 221.09 221.555 221.19 222.042 221.39C222.528 221.59 222.952 221.87 223.312 222.23C223.672 222.59 223.948 223.013 224.142 223.5C224.342 223.987 224.442 224.517 224.442 225.09C224.442 225.67 224.342 226.203 224.142 226.69C223.948 227.177 223.672 227.6 223.312 227.96C222.952 228.32 222.528 228.6 222.042 228.8C221.555 229 221.025 229.1 220.452 229.1ZM220.452 228.36C220.912 228.36 221.338 228.28 221.732 228.12C222.125 227.953 222.465 227.723 222.752 227.43C223.045 227.13 223.272 226.783 223.432 226.39C223.592 225.99 223.672 225.557 223.672 225.09C223.672 224.63 223.592 224.203 223.432 223.81C223.272 223.41 223.045 223.063 222.752 222.77C222.465 222.47 222.125 222.24 221.732 222.08C221.338 221.913 220.912 221.83 220.452 221.83C219.985 221.83 219.555 221.913 219.162 222.08C218.768 222.24 218.425 222.47 218.132 222.77C217.845 223.063 217.622 223.41 217.462 223.81C217.302 224.203 217.222 224.63 217.222 225.09C217.222 225.557 217.302 225.99 217.462 226.39C217.622 226.783 217.845 227.13 218.132 227.43C218.425 227.723 218.768 227.953 219.162 228.12C219.555 228.28 219.985 228.36 220.452 228.36ZM228.441 229C228.334 229 228.241 228.963 228.161 228.89C228.087 228.817 228.051 228.723 228.051 228.61V221.58C228.051 221.473 228.087 221.383 228.161 221.31C228.241 221.23 228.334 221.19 228.441 221.19C228.547 221.19 228.637 221.23 228.711 221.31C228.791 221.383 228.831 221.473 228.831 221.58V228.26H232.741C232.847 228.26 232.937 228.297 233.011 228.37C233.091 228.437 233.131 228.523 233.131 228.63C233.131 228.737 233.091 228.827 233.011 228.9C232.937 228.967 232.847 229 232.741 229H228.441ZM239.286 229.1C238.706 229.1 238.172 229 237.686 228.8C237.199 228.6 236.776 228.32 236.416 227.96C236.062 227.6 235.786 227.177 235.586 226.69C235.392 226.203 235.296 225.67 235.296 225.09C235.296 224.517 235.392 223.987 235.586 223.5C235.786 223.013 236.062 222.59 236.416 222.23C236.776 221.87 237.199 221.59 237.686 221.39C238.172 221.19 238.706 221.09 239.286 221.09C239.859 221.09 240.389 221.19 240.876 221.39C241.362 221.59 241.786 221.87 242.146 222.23C242.506 222.59 242.782 223.013 242.976 223.5C243.176 223.987 243.276 224.517 243.276 225.09C243.276 225.67 243.176 226.203 242.976 226.69C242.782 227.177 242.506 227.6 242.146 227.96C241.786 228.32 241.362 228.6 240.876 228.8C240.389 229 239.859 229.1 239.286 229.1ZM239.286 228.36C239.746 228.36 240.172 228.28 240.566 228.12C240.959 227.953 241.299 227.723 241.586 227.43C241.879 227.13 242.106 226.783 242.266 226.39C242.426 225.99 242.506 225.557 242.506 225.09C242.506 224.63 242.426 224.203 242.266 223.81C242.106 223.41 241.879 223.063 241.586 222.77C241.299 222.47 240.959 222.24 240.566 222.08C240.172 221.913 239.746 221.83 239.286 221.83C238.819 221.83 238.389 221.913 237.996 222.08C237.602 222.24 237.259 222.47 236.966 222.77C236.679 223.063 236.456 223.41 236.296 223.81C236.136 224.203 236.056 224.63 236.056 225.09C236.056 225.557 236.136 225.99 236.296 226.39C236.456 226.783 236.679 227.13 236.966 227.43C237.259 227.723 237.602 227.953 237.996 228.12C238.389 228.28 238.819 228.36 239.286 228.36ZM250.199 229.1C249.659 229.1 249.153 228.997 248.679 228.79C248.213 228.583 247.799 228.297 247.439 227.93C247.086 227.557 246.809 227.13 246.609 226.65C246.409 226.163 246.309 225.643 246.309 225.09C246.309 224.543 246.406 224.03 246.599 223.55C246.799 223.063 247.076 222.637 247.429 222.27C247.789 221.903 248.203 221.617 248.669 221.41C249.143 221.197 249.653 221.09 250.199 221.09C250.679 221.09 251.116 221.16 251.509 221.3C251.903 221.44 252.283 221.663 252.649 221.97C252.709 222.017 252.743 222.073 252.749 222.14C252.763 222.2 252.756 222.26 252.729 222.32C252.703 222.373 252.663 222.413 252.609 222.44C252.596 222.493 252.563 222.533 252.509 222.56C252.456 222.587 252.393 222.597 252.319 222.59C252.253 222.583 252.186 222.553 252.119 222.5C251.859 222.273 251.576 222.107 251.269 222C250.963 221.887 250.606 221.83 250.199 221.83C249.766 221.83 249.359 221.917 248.979 222.09C248.606 222.263 248.276 222.5 247.989 222.8C247.703 223.1 247.476 223.447 247.309 223.84C247.149 224.233 247.069 224.65 247.069 225.09C247.069 225.543 247.149 225.967 247.309 226.36C247.476 226.753 247.703 227.1 247.989 227.4C248.276 227.7 248.606 227.937 248.979 228.11C249.359 228.277 249.766 228.36 250.199 228.36C250.566 228.36 250.913 228.3 251.239 228.18C251.566 228.06 251.876 227.887 252.169 227.66C252.249 227.593 252.333 227.567 252.419 227.58C252.513 227.593 252.593 227.633 252.659 227.7C252.726 227.767 252.759 227.853 252.759 227.96C252.759 228.013 252.753 228.063 252.739 228.11C252.726 228.15 252.696 228.193 252.649 228.24C252.309 228.553 251.929 228.777 251.509 228.91C251.089 229.037 250.653 229.1 250.199 229.1ZM252.759 227.96L251.999 227.8V225.79H250.439C250.326 225.79 250.233 225.757 250.159 225.69C250.086 225.623 250.049 225.54 250.049 225.44C250.049 225.34 250.086 225.26 250.159 225.2C250.233 225.133 250.326 225.1 250.439 225.1H252.369C252.483 225.1 252.576 225.137 252.649 225.21C252.723 225.277 252.759 225.367 252.759 225.48V227.96ZM258.605 229C258.499 229 258.405 228.963 258.325 228.89C258.252 228.81 258.215 228.717 258.215 228.61V226.11L255.495 221.8C255.429 221.7 255.402 221.603 255.415 221.51C255.435 221.417 255.479 221.34 255.545 221.28C255.612 221.22 255.695 221.19 255.795 221.19C255.875 221.19 255.939 221.207 255.985 221.24C256.039 221.273 256.085 221.32 256.125 221.38L258.825 225.73H258.405L261.095 221.4C261.142 221.327 261.192 221.273 261.245 221.24C261.305 221.207 261.375 221.19 261.455 221.19C261.549 221.19 261.625 221.223 261.685 221.29C261.752 221.35 261.789 221.427 261.795 221.52C261.809 221.613 261.785 221.707 261.725 221.8L258.995 226.11V228.61C258.995 228.717 258.955 228.81 258.875 228.89C258.802 228.963 258.712 229 258.605 229ZM270.729 226.26C270.509 226.26 270.309 226.207 270.129 226.1C269.956 225.993 269.816 225.853 269.709 225.68C269.609 225.5 269.559 225.303 269.559 225.09C269.559 224.877 269.613 224.683 269.719 224.51C269.826 224.33 269.969 224.187 270.149 224.08C270.329 223.973 270.523 223.92 270.729 223.92C270.936 223.92 271.129 223.977 271.309 224.09C271.489 224.197 271.633 224.34 271.739 224.52C271.846 224.693 271.899 224.883 271.899 225.09C271.899 225.303 271.846 225.5 271.739 225.68C271.639 225.853 271.499 225.993 271.319 226.1C271.146 226.207 270.949 226.26 270.729 226.26ZM283.015 229.1C282.589 229.1 282.192 229.04 281.825 228.92C281.465 228.793 281.152 228.617 280.885 228.39C280.619 228.163 280.415 227.9 280.275 227.6C280.222 227.493 280.219 227.397 280.265 227.31C280.319 227.217 280.405 227.153 280.525 227.12C280.619 227.093 280.709 227.103 280.795 227.15C280.889 227.197 280.959 227.267 281.005 227.36C281.105 227.553 281.252 227.727 281.445 227.88C281.639 228.033 281.869 228.153 282.135 228.24C282.402 228.32 282.695 228.36 283.015 228.36C283.369 228.36 283.682 228.303 283.955 228.19C284.229 228.07 284.442 227.9 284.595 227.68C284.755 227.453 284.835 227.18 284.835 226.86C284.835 226.453 284.685 226.103 284.385 225.81C284.085 225.517 283.615 225.33 282.975 225.25C282.195 225.157 281.585 224.917 281.145 224.53C280.705 224.137 280.485 223.657 280.485 223.09C280.485 222.683 280.592 222.33 280.805 222.03C281.025 221.73 281.325 221.5 281.705 221.34C282.085 221.173 282.522 221.09 283.015 221.09C283.382 221.09 283.715 221.15 284.015 221.27C284.315 221.383 284.575 221.537 284.795 221.73C285.022 221.917 285.205 222.123 285.345 222.35C285.412 222.457 285.432 222.56 285.405 222.66C285.385 222.76 285.329 222.837 285.235 222.89C285.135 222.937 285.032 222.943 284.925 222.91C284.825 222.877 284.749 222.813 284.695 222.72C284.595 222.567 284.469 222.423 284.315 222.29C284.169 222.15 283.989 222.04 283.775 221.96C283.562 221.88 283.305 221.837 283.005 221.83C282.479 221.83 282.055 221.943 281.735 222.17C281.415 222.39 281.255 222.713 281.255 223.14C281.255 223.367 281.315 223.577 281.435 223.77C281.555 223.957 281.752 224.12 282.025 224.26C282.305 224.393 282.679 224.493 283.145 224.56C283.979 224.68 284.595 224.937 284.995 225.33C285.402 225.717 285.605 226.223 285.605 226.85C285.605 227.21 285.539 227.53 285.405 227.81C285.279 228.09 285.095 228.327 284.855 228.52C284.622 228.707 284.345 228.85 284.025 228.95C283.712 229.05 283.375 229.1 283.015 229.1ZM292.846 229.1C292.266 229.1 291.733 229 291.246 228.8C290.76 228.6 290.336 228.32 289.976 227.96C289.623 227.6 289.346 227.177 289.146 226.69C288.953 226.203 288.856 225.67 288.856 225.09C288.856 224.517 288.953 223.987 289.146 223.5C289.346 223.013 289.623 222.59 289.976 222.23C290.336 221.87 290.76 221.59 291.246 221.39C291.733 221.19 292.266 221.09 292.846 221.09C293.42 221.09 293.95 221.19 294.436 221.39C294.923 221.59 295.346 221.87 295.706 222.23C296.066 222.59 296.343 223.013 296.536 223.5C296.736 223.987 296.836 224.517 296.836 225.09C296.836 225.67 296.736 226.203 296.536 226.69C296.343 227.177 296.066 227.6 295.706 227.96C295.346 228.32 294.923 228.6 294.436 228.8C293.95 229 293.42 229.1 292.846 229.1ZM292.846 228.36C293.306 228.36 293.733 228.28 294.126 228.12C294.52 227.953 294.86 227.723 295.146 227.43C295.44 227.13 295.666 226.783 295.826 226.39C295.986 225.99 296.066 225.557 296.066 225.09C296.066 224.63 295.986 224.203 295.826 223.81C295.666 223.41 295.44 223.063 295.146 222.77C294.86 222.47 294.52 222.24 294.126 222.08C293.733 221.913 293.306 221.83 292.846 221.83C292.38 221.83 291.95 221.913 291.556 222.08C291.163 222.24 290.82 222.47 290.526 222.77C290.24 223.063 290.016 223.41 289.856 223.81C289.696 224.203 289.616 224.63 289.616 225.09C289.616 225.557 289.696 225.99 289.856 226.39C290.016 226.783 290.24 227.13 290.526 227.43C290.82 227.723 291.163 227.953 291.556 228.12C291.95 228.28 292.38 228.36 292.846 228.36ZM300.215 229C300.109 229 300.015 228.963 299.935 228.89C299.862 228.81 299.825 228.717 299.825 228.61V221.58C299.825 221.467 299.862 221.373 299.935 221.3C300.009 221.227 300.102 221.19 300.215 221.19H304.905C305.019 221.19 305.112 221.227 305.185 221.3C305.259 221.367 305.295 221.457 305.295 221.57C305.295 221.67 305.259 221.757 305.185 221.83C305.112 221.903 305.019 221.94 304.905 221.94H300.605V224.7H303.735C303.849 224.7 303.942 224.737 304.015 224.81C304.089 224.883 304.125 224.973 304.125 225.08C304.125 225.187 304.089 225.277 304.015 225.35C303.942 225.423 303.849 225.46 303.735 225.46H300.605V228.61C300.605 228.717 300.569 228.81 300.495 228.89C300.422 228.963 300.329 229 300.215 229ZM310.965 229C310.859 229 310.765 228.963 310.685 228.89C310.612 228.81 310.575 228.717 310.575 228.61V221.19H311.355V228.61C311.355 228.717 311.319 228.81 311.245 228.89C311.172 228.963 311.079 229 310.965 229ZM308.205 221.9C308.099 221.9 308.012 221.867 307.945 221.8C307.879 221.733 307.845 221.65 307.845 221.55C307.845 221.443 307.879 221.357 307.945 221.29C308.012 221.223 308.099 221.19 308.205 221.19H313.735C313.842 221.19 313.929 221.223 313.995 221.29C314.062 221.357 314.095 221.443 314.095 221.55C314.095 221.65 314.062 221.733 313.995 221.8C313.929 221.867 313.842 221.9 313.735 221.9H308.205ZM318.918 229C318.825 229 318.741 228.97 318.668 228.91C318.601 228.85 318.555 228.773 318.528 228.68L316.478 221.75C316.431 221.59 316.438 221.457 316.498 221.35C316.565 221.243 316.668 221.19 316.808 221.19C316.888 221.19 316.961 221.213 317.028 221.26C317.101 221.3 317.155 221.377 317.188 221.49L319.038 227.93H318.808L320.558 221.66C320.578 221.587 320.621 221.527 320.688 221.48C320.761 221.433 320.841 221.41 320.928 221.41C321.008 221.41 321.085 221.433 321.158 221.48C321.231 221.52 321.278 221.583 321.298 221.67L323.058 227.93H322.828L324.688 221.45C324.735 221.277 324.861 221.19 325.068 221.19C325.208 221.19 325.305 221.247 325.358 221.36C325.411 221.467 325.418 221.597 325.378 221.75L323.338 228.67C323.305 228.777 323.251 228.86 323.178 228.92C323.111 228.973 323.031 229 322.938 229C322.845 229 322.761 228.97 322.688 228.91C322.621 228.85 322.575 228.773 322.548 228.68L320.808 222.33H321.048L319.318 228.67C319.285 228.77 319.231 228.85 319.158 228.91C319.091 228.97 319.011 229 318.918 229ZM327.5 229C327.346 229 327.236 228.937 327.17 228.81C327.103 228.683 327.096 228.56 327.15 228.44L330.09 221.46C330.163 221.28 330.29 221.19 330.47 221.19C330.643 221.19 330.766 221.28 330.84 221.46L333.79 228.45C333.85 228.577 333.84 228.7 333.76 228.82C333.686 228.94 333.58 229 333.44 229C333.36 229 333.286 228.98 333.22 228.94C333.16 228.9 333.11 228.84 333.07 228.76L330.32 222.09H330.63L327.86 228.76C327.826 228.84 327.776 228.9 327.71 228.94C327.65 228.98 327.58 229 327.5 229ZM328.16 227.14L328.46 226.47H332.52L332.82 227.14H328.16ZM337.351 229C337.238 229 337.144 228.963 337.071 228.89C336.998 228.817 336.961 228.723 336.961 228.61V221.58C336.961 221.467 336.998 221.373 337.071 221.3C337.144 221.227 337.238 221.19 337.351 221.19H339.221C339.708 221.19 340.141 221.293 340.521 221.5C340.901 221.7 341.198 221.983 341.411 222.35C341.631 222.71 341.741 223.127 341.741 223.6C341.741 224.053 341.631 224.457 341.411 224.81C341.198 225.163 340.901 225.44 340.521 225.64C340.141 225.84 339.708 225.94 339.221 225.94H337.741V228.61C337.741 228.723 337.704 228.817 337.631 228.89C337.558 228.963 337.464 229 337.351 229ZM341.531 229C341.444 229 341.374 228.983 341.321 228.95C341.274 228.917 341.231 228.867 341.191 228.8L339.271 225.74L340.051 225.54L341.841 228.4C341.941 228.56 341.958 228.7 341.891 228.82C341.831 228.94 341.711 229 341.531 229ZM337.741 225.19H339.221C339.561 225.19 339.861 225.123 340.121 224.99C340.388 224.85 340.598 224.66 340.751 224.42C340.904 224.18 340.981 223.907 340.981 223.6C340.981 223.273 340.904 222.987 340.751 222.74C340.598 222.487 340.388 222.29 340.121 222.15C339.861 222.01 339.561 221.94 339.221 221.94H337.741V225.19ZM345.533 229C345.419 229 345.326 228.963 345.253 228.89C345.179 228.817 345.143 228.723 345.143 228.61V221.58C345.143 221.467 345.179 221.373 345.253 221.3C345.326 221.227 345.419 221.19 345.533 221.19H350.223C350.329 221.19 350.419 221.227 350.493 221.3C350.573 221.367 350.613 221.457 350.613 221.57C350.613 221.67 350.573 221.757 350.493 221.83C350.419 221.903 350.329 221.94 350.223 221.94H345.923V224.7H349.053C349.166 224.7 349.259 224.737 349.333 224.81C349.406 224.883 349.443 224.973 349.443 225.08C349.443 225.187 349.406 225.277 349.333 225.35C349.259 225.423 349.166 225.46 349.053 225.46H345.923V228.25H350.223C350.329 228.25 350.419 228.287 350.493 228.36C350.573 228.433 350.613 228.52 350.613 228.62C350.613 228.733 350.573 228.827 350.493 228.9C350.419 228.967 350.329 229 350.223 229H345.533Z" fill="white"/>
<path d="M111.5 169.75V177.25M111.5 199.75V207.25M98.2437 175.244L103.55 180.55M119.45 196.45L124.756 201.756M92.75 188.5H100.25M122.75 188.5H130.25M98.2437 201.756L103.55 196.45M119.45 180.55L124.756 175.244" stroke="white" stroke-width="4" stroke-linecap="round" stroke-linejoin="round"/>
</svg>
